# xmcd CD database file
#
# Track frame offsets:
#	150
#	23840
#	50200
#	78208
#	104408
#	125764
#	156312
#	185594
#	206959
#	226057
#	242122
#
# Disc length: 3606 seconds
#
# Revision: 0
# Processed by: cddbd v1.5.2PL0 Copyright (c) Steve Scherf et al.
# Submitted via: CDex 1.70beta2
#
DISCID=990e140b
DTITLE=Stan Getz - The Best of Stan Getz - 20th Century Masters - The Millennium Collectio
DYEAR=1900
DGENRE=Jazz
TTITLE0=The Girl From Ipanema
TTITLE1=Desifinado
TTITLE2=Samba De Uma Nota Só
TTITLE3=Manha De Carnaval
TTITLE4=O Grande Amor
TTITLE5=Night and Day
TTITLE6=Like Someone in Love
TTITLE7=Early Autumn
TTITLE8=A House is not a Home
TTITLE9=Didn't We
TTITLE10=East of The Sun (and west of the moon)
EXTD=
EXTT0=
EXTT1=
EXTT2=
EXTT3=
EXTT4=
EXTT5=
EXTT6=
EXTT7=
EXTT8=
EXTT9=
EXTT10=
PLAYORDER=
